<svg version="1.1" height="45px" width="45px" xmlns="http://www.w3.org/2000/svg" xmlns:xlink="http://www.w3.org/1999/xlink">
		<title>Facebook</title>
<rect fill="#3C5A99" width="45" height="45"/>
<path fill="#FFFFFF" d="M27.2,35C27.2,35,27.2,35,27.2,35l0-9.7h3.2l0.5-3.8h-3.7v-2.4c0-1.1,0.3-1.8,1.9-1.8h2v-3.4
	c-1-0.1-1.9-0.2-2.9-0.1c-2.9,0-4.9,1.8-4.9,5v2.8h-3.3v3.8h3.3V35h0c-5.8,0-12,0-12,0c-0.8,0-1.4-0.6-1.4-1.4V11.4
	c0-0.8,0.6-1.4,1.4-1.4h22.2c0.8,0,1.4,0.6,1.4,1.4v22.2c0,0.8-0.6,1.4-1.4,1.4C33.6,35,30.9,35,27.2,35"/>
</svg>