		<svg version="1.1" width="45" height="45" xmlns="http://www.w3.org/2000/svg" xmlns:xlink="http://www.w3.org/1999/xlink">
		
			<rect fill="#93278F" width="45" height="45"/>
<path fill="#FFFFFF" d="M22.5,12.5c3.3,0,3.7,0,5.1,0.1c1.2,0.1,1.9,0.3,2.3,0.4c0.6,0.2,1,0.5,1.4,0.9c0.4,0.4,0.7,0.9,0.9,1.4
	c0.2,0.4,0.4,1.1,0.4,2.3c0.1,1.3,0.1,1.7,0.1,5s0,3.7-0.1,5c-0.1,1.2-0.3,1.9-0.4,2.3c-0.2,0.6-0.5,1-0.9,1.4
	c-0.4,0.4-0.9,0.7-1.4,0.9c-0.4,0.2-1.1,0.4-2.3,0.4c-1.3,0.1-1.7,0.1-5.1,0.1s-3.7,0-5.1-0.1c-1.2-0.1-1.9-0.3-2.3-0.4
	c-0.6-0.2-1-0.5-1.4-0.9C13.3,31,13,30.6,12.8,30c-0.2-0.4-0.4-1.1-0.4-2.3c-0.1-1.3-0.1-1.7-0.1-5s0-3.7,0.1-5
	c0.1-1.2,0.3-1.9,0.4-2.3c0.2-0.6,0.5-1,0.9-1.4c0.4-0.4,0.9-0.7,1.4-0.9c0.4-0.2,1.1-0.4,2.3-0.4C18.8,12.5,19.2,12.5,22.5,12.5
	 M22.5,10.2c-3.4,0-3.8,0-5.2,0.1c-1.3,0.1-2.2,0.3-3,0.6c-0.8,0.3-1.5,0.7-2.2,1.4c-0.7,0.7-1.1,1.4-1.4,2.2
	c-0.3,0.8-0.5,1.7-0.6,3C10,18.9,10,19.3,10,22.7c0,3.4,0,3.8,0.1,5.1c0.1,1.3,0.3,2.2,0.6,3c0.3,0.8,0.7,1.5,1.4,2.2
	c0.7,0.7,1.4,1.1,2.2,1.4c0.8,0.3,1.7,0.5,3,0.6c1.3,0.1,1.8,0.1,5.2,0.1s3.8,0,5.2-0.1c1.3-0.1,2.2-0.3,3-0.6
	c0.8-0.3,1.5-0.7,2.2-1.4c0.7-0.7,1.1-1.4,1.4-2.2c0.3-0.8,0.5-1.7,0.6-3c0.1-1.3,0.1-1.8,0.1-5.1s0-3.8-0.1-5.1
	c-0.1-1.3-0.3-2.2-0.6-3c-0.3-0.8-0.7-1.5-1.4-2.2c-0.7-0.7-1.4-1.1-2.2-1.4c-0.8-0.3-1.7-0.5-3-0.6C26.3,10.2,25.9,10.2,22.5,10.2
	L22.5,10.2z"/>
<path fill="#FFFFFF" d="M22.5,16.3c-3.5,0-6.4,2.9-6.4,6.4s2.9,6.4,6.4,6.4s6.4-2.9,6.4-6.4S26.1,16.3,22.5,16.3z M22.5,26.8
	c-2.3,0-4.2-1.9-4.2-4.2s1.9-4.2,4.2-4.2s4.2,1.9,4.2,4.2S24.8,26.8,22.5,26.8z"/>
<ellipse fill="#FFFFFF" cx="29.2" cy="16" rx="1.5" ry="1.5"/>		</svg>