<svg version="1.1"  width="45" height="45" xmlns="http://www.w3.org/2000/svg" xmlns:xlink="http://www.w3.org/1999/xlink">
<rect y="0" fill="#1DA1F2" width="45" height="45"/>
<title>Twitter</title>
<path fill="#FFFFFF" d="M19.6,28.9c5.9,0,9.1-4.9,9.1-9.1c0-0.1,0-0.3,0-0.4c0.6-0.5,1.2-1,1.6-1.7c-0.6,0.3-1.2,0.4-1.8,0.5
		c0.7-0.4,1.2-1,1.4-1.8c-0.6,0.4-1.3,0.6-2,0.8c-1.2-1.3-3.2-1.4-4.5-0.1c-0.8,0.8-1.2,2-0.9,3.1c-2.6-0.1-5-1.3-6.6-3.4
		c-0.9,1.5-0.4,3.3,1,4.3c-0.5,0-1-0.2-1.5-0.4c0,0,0,0,0,0c0,1.5,1.1,2.8,2.6,3.1c-0.5,0.1-1,0.1-1.4,0.1c0.4,1.3,1.6,2.2,3,2.2
		c-1.1,0.9-2.5,1.4-4,1.4c-0.3,0-0.5,0-0.8,0C16.2,28.4,17.9,28.9,19.6,28.9"/>
	<rect x="10" y="10" fill="none" width="25" height="25"/>
</svg>