<svg version="1.1" height="45px" width="45px" xmlns="http://www.w3.org/2000/svg" xmlns:xlink="http://www.w3.org/1999/xlink">
				<title>Youtube</title>
				<rect fill="#FF0000" width="45" height="45"/>
				<path fill="#FFFFFF" d="M33.5,17.2c-0.3-1-1-1.8-2-2c-1.8-0.5-8.9-0.5-8.9-0.5s-7.1,0-8.9,0.5c-1,0.3-1.7,1-2,2
					c-0.5,1.8-0.5,5.5-0.5,5.5s0,3.7,0.5,5.5c0.3,1,1,1.8,2,2c1.8,0.5,8.9,0.5,8.9,0.5s7.1,0,8.9-0.5c1-0.3,1.7-1,2-2
			c0.5-1.8,0.5-5.5,0.5-5.5S34,18.9,33.5,17.2z"/>
<polygon fill="#FF0000" points="20.2,26 26.2,22.7 20.2,19.3 "/>
		</svg>